<svg xmlns="http://www.w3.org/2000/svg" viewBox="16.399999618530273 8.699999809265137 75.9000015258789 91.30001068115234" preserveAspectRatio="xMidYMid meet" style="stroke-width: 0px;">
<g>
    <path d="M79.9 8.7c-6.9 0-12.4 5.6-12.4 12.4 0 1.5.3 3 .8 4.4L37 42.9c-2.2-1.9-5-3.1-8.2-3.1-6.9 0-12.4 5.6-12.4 12.4 0 6.9 5.6 12.4 12.4 12.4 2.9 0 5.6-1 7.7-2.7l16.1 18.6c-1.4 2-2.2 4.4-2.2 7.1 0 6.9 5.6 12.4 12.4 12.4 6.9 0 12.4-5.6 12.4-12.4s-5.6-12.4-12.4-12.4c-3.3 0-6.4 1.3-8.6 3.5L38.3 60.3c1.8-2.2 3-5 3-8 0-2.8-1-5.4-2.5-7.5l30.6-17.1c2.2 3.5 6.1 5.8 10.5 5.8 6.9 0 12.4-5.6 12.4-12.4 0-6.9-5.6-12.4-12.4-12.4zM62.8 77.8c5.5 0 9.9 4.5 9.9 9.9 0 5.5-4.5 9.9-9.9 9.9s-9.9-4.5-9.9-9.9c0-5.5 4.5-9.9 9.9-9.9zm-34-15.6c-5.5 0-9.9-4.5-9.9-9.9 0-5.5 4.5-9.9 9.9-9.9 2.6 0 4.9 1 6.7 2.6 0 .1 0 .1.1.2.2.3.4.5.7.6 1.6 1.8 2.5 4.1 2.5 6.6 0 5.4-4.5 9.8-10 9.8zM79.9 31c-5.5 0-9.9-4.5-9.9-9.9 0-5.5 4.5-9.9 9.9-9.9s9.9 4.5 9.9 9.9c0 5.5-4.5 9.9-9.9 9.9z"></path>
</g>
</svg>